# xmcd
#
# Track frame offsets: 
#        150
#        11970
#        25107
#        33712
#        43277
#        55412
#        67980
#        78652
#        92550
#        102850
#
# Disc length: 1483 seconds
#
# Revision: 2
# Processed by: cddbd v1.5.2PL0 Copyright (c) Steve Scherf et al.
# Submitted via: ExactAudioCopy v0.99pb3
#
DISCID=8305c90a
DTITLE=Willie Nelson and Waylon Jennings - Country Legends Reunion
DYEAR=1996
DGENRE=Country
TTITLE0=Crying
TTITLE1=Pages
TTITLE2=Abilene
TTITLE3=Building Heartaches
TTITLE4=Don't Think Twice
TTITLE5=Shelter of My Arms
TTITLE6=Dream Baby
TTITLE7=No Tomorrow In Sight
TTITLE8=White Lightning
TTITLE9=Slow Down Old World
EXTD=
EXTT0=
EXTT1=Waylon Jennings
EXTT2=Willie Nelson
EXTT3=Waylon Jennings
EXTT4=Willie Nelson
EXTT5=Waylon Jennings
EXTT6=Willie Nelson
EXTT7=Waylon Jennings
EXTT8=Willie Nelson
EXTT9=Waylon Jennings
PLAYORDER=
